<svg xmlns="http://www.w3.org/2000/svg" xmlns:xlink="http://www.w3.org/1999/xlink" viewBox="0 0 500 500" width="500" height="500" preserveAspectRatio="xMidYMid meet" style="width: 100%; height: 100%; transform: translate3d(0px, 0px, 0px); content-visibility: visible;"><defs><clipPath id="__lottie_element_3421"><rect width="500" height="500" x="0" y="0"/></clipPath><clipPath id="__lottie_element_3423"><path d="M0,0 L500,0 L500,500 L0,500z"/></clipPath></defs><g clip-path="url(#__lottie_element_3421)"><g clip-path="url(#__lottie_element_3423)" transform="matrix(1,0,0,1,0,0)" opacity="1" style="display: block;"><g class="primary design" transform="matrix(0,1,-1,0,473.51025390625,-0.0030059814453125)" opacity="1" style="display: none;"><g opacity="1" transform="matrix(1,0,0,1,250.00599670410156,218.74899291992188)"><path stroke-linecap="round" stroke-linejoin="round" fill-opacity="0" class="primary" stroke="rgb(18,19,49)" stroke-opacity="1" stroke-width="42" d=" M84.32927703857422,61.18872833251953 C84.32927703857422,61.18872833251953 0.1263750046491623,-22.373886108398438 0.1263750046491623,-22.373886108398438 C0.1263750046491623,-22.373886108398438 -83.85067749023438,60.952022552490234 -83.85067749023438,60.952022552490234 M0.1253959983587265,-22.373886108398438 C0.1253959983587265,-22.373886108398438 -0.003000000026077032,128.9938201904297 -0.003000000026077032,128.9938201904297"/></g></g><g class="primary design" transform="matrix(1,0,0,1,0,0)" opacity="1" style="display: block;"><g opacity="1" transform="matrix(1,0,0,1,302.1390075683594,250.0780029296875)"><path class="primary" fill="rgb(18,19,49)" fill-opacity="1" d=" M133.79800415039062,-7.993000030517578 C132.71299743652344,-10.607000350952148 131.1219940185547,-12.940999984741211 129.13099670410156,-14.897000312805176 C129.13099670410156,-14.897000312805176 46.03200149536133,-97.99500274658203 46.03200149536133,-97.99500274658203 C37.90700149536133,-106.12000274658203 24.781999588012695,-106.12000274658203 16.656999588012695,-97.99500274658203 C8.531999588012695,-89.87000274658203 8.531999588012695,-76.74400329589844 16.656999588012695,-68.61900329589844 C16.656999588012695,-68.61900329589844 64.36599731445312,-20.910999298095703 64.36599731445312,-20.910999298095703 C64.36599731445312,-20.910999298095703 -114.59300231933594,-20.910999298095703 -114.59300231933594,-20.910999298095703 C-126.0510025024414,-20.910999298095703 -135.42599487304688,-11.53600025177002 -135.42599487304688,-0.07800000160932541 C-135.42599487304688,11.380000114440918 -126.0510025024414,20.7549991607666 -114.59300231933594,20.7549991607666 C-114.59300231933594,20.7549991607666 64.36599731445312,20.7549991607666 64.36599731445312,20.7549991607666 C64.36599731445312,20.7549991607666 16.447999954223633,68.6719970703125 16.447999954223633,68.6719970703125 C8.324000358581543,76.7969970703125 8.324000358581543,89.9229965209961 16.447999954223633,98.0479965209961 C20.614999771118164,102.00599670410156 25.822999954223633,104.08899688720703 31.239999771118164,104.08899688720703 C36.65700149536133,104.08899688720703 41.8650016784668,102.00599670410156 46.03200149536133,98.0479965209961 C46.03200149536133,98.0479965209961 129.36599731445312,14.71399974822998 129.36599731445312,14.71399974822998 C135.52000427246094,8.557999610900879 136.9669952392578,-0.44600000977516174 133.79800415039062,-7.993000030517578z"/></g><g opacity="1" transform="matrix(1,0,0,1,177.12899780273438,250)"><path class="primary" fill="rgb(18,19,49)" fill-opacity="1" d=" M93.75,145.83299255371094 C93.75,145.83299255371094 -54.375,145.83299255371094 -54.375,145.83299255371094 C-64.58300018310547,145.83299255371094 -72.91699981689453,137.08399963378906 -72.91699981689453,126.25 C-72.91699981689453,126.25 -72.91699981689453,-126.25 -72.91699981689453,-126.25 C-72.91699981689453,-137.08399963378906 -64.58300018310547,-145.83299255371094 -54.375,-145.83299255371094 C-54.375,-145.83299255371094 93.75,-145.83299255371094 93.75,-145.83299255371094 C105.20800018310547,-145.83299255371094 114.58300018310547,-155.20899963378906 114.58300018310547,-166.66700744628906 C114.58300018310547,-178.125 105.20800018310547,-187.5 93.75,-187.5 C93.75,-187.5 -54.375,-187.5 -54.375,-187.5 C-87.5009994506836,-187.5 -114.58300018310547,-160 -114.58300018310547,-126.25 C-114.58300018310547,-126.25 -114.58300018310547,126.25 -114.58300018310547,126.25 C-114.58300018310547,160 -87.5009994506836,187.5 -54.375,187.5 C-54.375,187.5 93.75,187.5 93.75,187.5 C105.20800018310547,187.5 114.58300018310547,178.125 114.58300018310547,166.66700744628906 C114.58300018310547,155.20899963378906 105.20800018310547,145.83299255371094 93.75,145.83299255371094z"/></g></g></g></g></svg>