<svg width="2787" height="350" viewBox="0 0 2787 350" fill="none" xmlns="http://www.w3.org/2000/svg">
<path d="M1588.67 346.08L1657.89 0H1813.13C1858.94 0 1894.38 10.0528 1919.43 30.1584C1944.48 49.9344 1957 77.7856 1957 113.712C1957 142.717 1949.75 168.096 1935.25 189.85C1921.07 211.603 1900.8 228.578 1874.43 240.773C1848.4 252.968 1817.58 259.066 1781.98 259.066H1670.25L1732.54 210.12L1705.35 346.08H1588.67ZM1800.27 346.08L1729.08 220.008H1849.22L1921.4 346.08H1800.27ZM1729.58 223.963L1688.54 171.062H1787.91C1804.07 171.062 1816.59 167.107 1825.49 159.197C1834.39 150.957 1838.84 139.586 1838.84 125.083C1838.84 112.558 1834.88 103.659 1826.97 98.3856C1819.39 92.7824 1808.84 89.9808 1795.33 89.9808H1704.86L1767.15 35.5968L1729.58 223.963Z" fill="black"/>
<path d="M1406.31 128.544H1560.56L1543.76 212.592H1389.5L1406.31 128.544ZM1388.02 258.077H1561.55L1543.76 346.08H1256.01L1325.23 0H1606.54L1588.75 88.0032H1422.13L1388.02 258.077Z" fill="black"/>
<path d="M904.237 346.08L918.575 274.392L1152.43 49.9344L1162.31 90.4752H960.105L978.397 0H1283.44L1269.1 71.688L1035.25 296.146L1025.37 255.605H1240.43L1222.14 346.08H904.237Z" fill="black"/>
<path d="M654.586 346.08L684.744 194.299L697.599 264.01L593.28 0H710.453L781.647 181.445H707.981L853.829 0H971.002L761.871 264.01L801.423 194.299L771.264 346.08H654.586Z" fill="black"/>
<path d="M41.5296 346.08L0 0H115.195L148.32 292.19H88.0032L240.278 0H347.563L376.733 292.19H319.877L471.658 0H586.358L406.397 346.08H281.314L255.11 106.79H290.707L166.613 346.08H41.5296Z" fill="black"/>
<path d="M1996.84 346L2030.44 178H2069.56L2137.48 290.32L2121.16 289.84L2143.48 178H2190.04L2156.44 346H2117.32L2049.64 233.68L2065.72 234.16L2043.4 346H1996.84ZM2254.28 243.04H2332.28L2325.32 278.56H2247.32L2254.28 243.04ZM2244.44 309.28H2332.52L2324.84 346H2190.2L2223.8 178H2355.32L2347.88 214.72H2263.16L2244.44 309.28ZM2390.39 346L2369.75 178H2416.55L2434.07 323.44H2409.35L2486.15 178H2530.07L2546.15 323.44H2522.87L2599.19 178H2646.23L2558.15 346H2507.27L2492.39 222.4H2506.79L2441.51 346H2390.39ZM2692.29 349.36C2682.69 349.36 2673.49 348.56 2664.69 346.96C2655.89 345.52 2647.89 343.44 2640.69 340.72C2633.49 337.84 2627.33 334.72 2622.21 331.36L2640.93 295.84C2646.69 299.36 2652.61 302.4 2658.69 304.96C2664.93 307.36 2671.25 309.2 2677.65 310.48C2684.05 311.76 2690.45 312.4 2696.85 312.4C2702.93 312.4 2708.13 311.84 2712.45 310.72C2716.77 309.44 2720.05 307.68 2722.29 305.44C2724.53 303.2 2725.65 300.56 2725.65 297.52C2725.65 294.16 2724.13 291.52 2721.09 289.6C2718.21 287.52 2714.37 285.76 2709.57 284.32C2704.77 282.88 2699.41 281.44 2693.49 280C2687.73 278.4 2681.89 276.56 2675.97 274.48C2670.21 272.24 2664.93 269.52 2660.13 266.32C2655.33 262.96 2651.41 258.72 2648.37 253.6C2645.49 248.48 2644.05 242.16 2644.05 234.64C2644.05 222.48 2647.33 211.92 2653.89 202.96C2660.45 194 2669.73 187.04 2681.73 182.08C2693.89 177.12 2708.21 174.64 2724.69 174.64C2736.69 174.64 2747.89 175.92 2758.29 178.48C2768.69 180.88 2777.65 184.4 2785.17 189.04L2767.89 224.32C2761.33 220.16 2754.05 217.04 2746.05 214.96C2738.21 212.72 2730.13 211.6 2721.81 211.6C2715.41 211.6 2709.89 212.32 2705.25 213.76C2700.77 215.2 2697.33 217.2 2694.93 219.76C2692.69 222.16 2691.57 224.88 2691.57 227.92C2691.57 231.12 2693.01 233.76 2695.89 235.84C2698.77 237.92 2702.61 239.68 2707.41 241.12C2712.37 242.56 2717.73 244.08 2723.49 245.68C2729.41 247.12 2735.25 248.88 2741.01 250.96C2746.77 252.88 2752.13 255.52 2757.09 258.88C2762.05 262.08 2765.97 266.16 2768.85 271.12C2771.73 276.08 2773.17 282.24 2773.17 289.6C2773.17 301.6 2769.89 312.08 2763.33 321.04C2756.77 330 2747.41 336.96 2735.25 341.92C2723.09 346.88 2708.77 349.36 2692.29 349.36Z" fill="black" fill-opacity="0.3"/>
</svg>
