<svg width="1957" height="347" viewBox="0 0 1957 347" fill="none" xmlns="http://www.w3.org/2000/svg">
<path d="M1588.67 346.08L1657.89 0H1813.13C1858.94 0 1894.38 10.0528 1919.43 30.1584C1944.47 49.9344 1957 77.7856 1957 113.712C1957 142.717 1949.75 168.096 1935.25 189.85C1921.07 211.603 1900.8 228.578 1874.43 240.773C1848.4 252.968 1817.58 259.066 1781.98 259.066H1670.25L1732.54 210.12L1705.35 346.08H1588.67ZM1800.27 346.08L1729.08 220.008H1849.22L1921.4 346.08H1800.27ZM1729.58 223.963L1688.54 171.062H1787.91C1804.07 171.062 1816.59 167.107 1825.49 159.197C1834.39 150.957 1838.84 139.586 1838.84 125.083C1838.84 112.558 1834.88 103.659 1826.97 98.3855C1819.39 92.7824 1808.84 89.9808 1795.33 89.9808H1704.86L1767.15 35.5968L1729.58 223.963Z" fill="black"/>
<path d="M1406.31 128.544H1560.56L1543.76 212.592H1389.5L1406.31 128.544ZM1388.02 258.077H1561.55L1543.76 346.08H1256.01L1325.23 0H1606.54L1588.75 88.0032H1422.13L1388.02 258.077Z" fill="black"/>
<path d="M904.237 346.08L918.575 274.392L1152.43 49.9344L1162.31 90.4752H960.104L978.397 0H1283.44L1269.1 71.688L1035.25 296.145L1025.37 255.605H1240.43L1222.14 346.08H904.237Z" fill="black"/>
<path d="M654.585 346.08L684.744 194.299L697.598 264.01L593.28 0H710.453L781.646 181.445H707.981L853.828 0H971.001L761.87 264.01L801.422 194.299L771.264 346.08H654.585Z" fill="black"/>
<path d="M41.5296 346.08L0 0H115.195L148.32 292.19H88.0032L240.278 0H347.563L376.733 292.19H319.877L471.657 0H586.358L406.397 346.08H281.314L255.11 106.79H290.707L166.613 346.08H41.5296Z" fill="black"/>
</svg>
