<svg width="4366" height="773" viewBox="0 0 4366 773" fill="none" xmlns="http://www.w3.org/2000/svg">
<path d="M3544.21 772.08L3698.63 0H4044.96C4147.17 0 4226.22 22.4271 4282.1 67.2812C4337.99 111.4 4365.93 173.534 4365.93 253.683C4365.93 318.391 4349.75 375.01 4317.4 423.541C4285.78 472.072 4240.56 509.94 4181.73 537.147C4123.64 564.354 4054.89 577.957 3975.48 577.957H3726.21L3865.18 468.763L3804.52 772.08H3544.21ZM4016.29 772.08L3857.46 490.822H4125.48L4286.51 772.08H4016.29ZM3858.56 499.646L3767.01 381.628H3988.71C4024.74 381.628 4052.68 372.804 4072.54 355.157C4092.39 336.774 4102.32 311.406 4102.32 279.052C4102.32 251.11 4093.49 231.256 4075.85 219.491C4058.93 206.991 4035.4 200.741 4005.26 200.741H3803.41L3942.39 79.4139L3858.56 499.646Z" fill="black"/>
<path d="M3137.38 286.773H3481.51L3444.01 474.278H3099.88L3137.38 286.773ZM3096.57 575.751H3483.72L3444.01 772.08H2802.08L2956.5 0H3584.09L3544.38 196.329H3172.68L3096.57 575.751Z" fill="black"/>
<path d="M2017.29 772.08L2049.28 612.149L2570.98 111.4L2593.04 201.844H2141.93L2182.74 0H2863.27L2831.28 159.931L2309.58 660.68L2287.52 570.236H2767.31L2726.5 772.08H2017.29Z" fill="black"/>
<path d="M1460.33 772.08L1527.62 433.468L1556.29 588.987L1323.57 0H1584.97L1743.8 404.79H1579.45L1904.83 0H2166.24L1699.68 588.987L1787.92 433.468L1720.64 772.08H1460.33Z" fill="black"/>
<path d="M92.6496 772.08L0 0H256.992L330.891 651.856H196.329L536.044 0H775.389L840.464 651.856H713.622L1052.23 0H1308.12L906.642 772.08H627.591L569.133 238.242H648.547L371.701 772.08H92.6496Z" fill="black"/>
</svg>
