<svg xmlns="http://www.w3.org/2000/svg" viewBox="0 0 256 199" role="img" aria-label="Discord">
  <path fill="#5865F2" d="M216.856 16.597A208.502 208.502 0 0 0 164.041.4a155.3 155.3 0 0 0-6.646 13.403 193.92 193.92 0 0 0-58.788 0A155.14 155.14 0 0 0 91.96.4 207.98 207.98 0 0 0 39.144 16.597C5.633 67.146-3.443 116.433 1.095 164.95a211.2 211.2 0 0 0 64.377 32.549 161.54 161.54 0 0 0 13.826-22.557 136.5 136.5 0 0 1-21.756-10.39c1.816-1.335 3.587-2.733 5.304-4.187 41.97 19.702 87.537 19.702 129.015 0 1.729 1.454 3.5 2.852 5.304 4.187a136.2 136.2 0 0 1-21.756 10.402 161.39 161.39 0 0 0 13.826 22.545 211.1 211.1 0 0 0 64.39-32.549c5.325-56.257-9.091-105.092-37.951-148.353zM85.473 135.845c-12.617 0-22.964-11.587-22.964-25.818 0-14.23 10.18-25.817 22.964-25.817 12.87 0 23.131 11.587 22.964 25.817 0 14.231-10.18 25.818-22.964 25.818zm85.054 0c-12.617 0-22.964-11.587-22.964-25.818 0-14.23 10.18-25.817 22.964-25.817 12.87 0 23.131 11.587 22.964 25.817 0 14.231-10.094 25.818-22.964 25.818z"/>
</svg>
