<svg xmlns="http://www.w3.org/2000/svg" xmlns:xlink="http://www.w3.org/1999/xlink" viewBox="0 0 500 500" width="500" height="500" preserveAspectRatio="xMidYMid meet" style="width: 100%; height: 100%; transform: translate3d(0px, 0px, 0px); content-visibility: visible;"><defs><clipPath id="__lottie_element_604"><rect width="500" height="500" x="0" y="0"/></clipPath><clipPath id="__lottie_element_606"><path d="M0,0 L500,0 L500,500 L0,500z"/></clipPath><g id="__lottie_element_641"><g class="primary design" transform="matrix(1.1185057163238525,-0.0014392060693353415,0.0014392060693353415,1.1185057163238525,259.8007507324219,240.49908447265625)" opacity="1" style="display: none;"><g opacity="1" transform="matrix(1,0,0,1,0,0)"><path stroke-linecap="round" stroke-linejoin="round" fill-opacity="0" class="primary" stroke="rgb(227,227,227)" stroke-opacity="1" stroke-width="36" d=" M66.11699676513672,-47.784000396728516 C25.41699981689453,-7.179999828338623 -27.302000045776367,45.41400146484375 -27.302000045776367,45.41400146484375 C-27.302000045776367,45.41400146484375 -63.63999938964844,9.737000465393066 -64.91899871826172,8.482000350952148"/></g></g></g><filter id="__lottie_element_644" filterUnits="objectBoundingBox" x="0%" y="0%" width="100%" height="100%"><feComponentTransfer in="SourceGraphic"><feFuncA type="table" tableValues="1.0 0.0"/></feComponentTransfer></filter><mask id="__lottie_element_641_2" mask-type="alpha" maskUnits="userSpaceOnUse"><g filter="url(#__lottie_element_644)"><rect width="500" height="500" x="0" y="0" fill="#ffffff" opacity="0"/><use xmlns:ns1="http://www.w3.org/1999/xlink" ns1:href="#__lottie_element_641"/></g></mask></defs><g clip-path="url(#__lottie_element_604)"><g clip-path="url(#__lottie_element_606)" transform="matrix(1,0,0,1,0,0)" opacity="1" style="display: block;"><g mask="url(#__lottie_element_641_2)" style="display: none;"><g class="primary design" transform="matrix(0.9989780187606812,-0.0012854071101173759,0.0012854071101173759,0.9989780187606812,250,250)" opacity="1"><g opacity="1" transform="matrix(1,0,0,1,0,0)"><path class="primary" fill="rgb(227,227,227)" fill-opacity="1" d=" M169.42100524902344,-145.625 C135.46299743652344,-150 41.0880012512207,-165.625 11.088000297546387,-184.375 C4.421000003814697,-188.54200744628906 -4.328999996185303,-188.54200744628906 -10.996000289916992,-184.375 C-40.99599838256836,-165.625 -135.37100219726562,-150 -169.32899475097656,-145.625 C-180.57899475097656,-144.16700744628906 -188.49600219726562,-133.95799255371094 -187.24600219726562,-122.70800018310547 C-187.24600219726562,-122.70800018310547 -180.37100219726562,-60.83300018310547 -180.37100219726562,-60.83300018310547 C-167.87100219726562,33.95899963378906 -114.74500274658203,117.70899963378906 -34.5369987487793,169.16700744628906 C-34.5369987487793,169.16700744628906 -11.204000473022461,184.16700744628906 -11.204000473022461,184.16700744628906 C-7.870999813079834,186.45899963378906 -3.9119999408721924,187.5 0.04600000008940697,187.5 C4.004000186920166,187.5 7.9629998207092285,186.45899963378906 11.295999526977539,184.16700744628906 C11.295999526977539,184.16700744628906 34.62900161743164,169.16700744628906 34.62900161743164,169.16700744628906 C114.62899780273438,117.70899963378906 167.96299743652344,33.95800018310547 180.46299743652344,-61.25 C180.46299743652344,-61.25 187.33799743652344,-122.70800018310547 187.33799743652344,-122.70800018310547 C188.58799743652344,-133.95799255371094 180.67100524902344,-144.16700744628906 169.42100524902344,-145.625z"/></g></g></g><g class="primary design" transform="matrix(1,0,0,1,250,250)" opacity="1" style="display: block;"><g opacity="1" transform="matrix(1,0,0,1,0,0)"><path class="primary" fill="rgb(227,227,227)" fill-opacity="1" d=" M169.42100524902344,-145.625 C135.46299743652344,-150 41.0880012512207,-165.625 11.088000297546387,-184.375 C4.421000003814697,-188.54200744628906 -4.328999996185303,-188.54200744628906 -10.996000289916992,-184.375 C-40.99599838256836,-165.625 -135.37100219726562,-150 -169.32899475097656,-145.625 C-180.57899475097656,-144.16700744628906 -188.49600219726562,-133.95799255371094 -187.24600219726562,-122.70800018310547 C-187.24600219726562,-122.70800018310547 -180.37100219726562,-60.83300018310547 -180.37100219726562,-60.83300018310547 C-167.87100219726562,33.95899963378906 -114.74500274658203,117.70899963378906 -34.5369987487793,169.16700744628906 C-34.5369987487793,169.16700744628906 -11.204000473022461,184.16700744628906 -11.204000473022461,184.16700744628906 C-7.870999813079834,186.45899963378906 -3.9119999408721924,187.5 0.04600000008940697,187.5 C4.004000186920166,187.5 7.9629998207092285,186.45899963378906 11.295999526977539,184.16700744628906 C11.295999526977539,184.16700744628906 34.62900161743164,169.16700744628906 34.62900161743164,169.16700744628906 C114.62899780273438,117.70899963378906 167.96299743652344,33.95800018310547 180.46299743652344,-61.25 C180.46299743652344,-61.25 187.33799743652344,-122.70800018310547 187.33799743652344,-122.70800018310547 C188.58799743652344,-133.95799255371094 180.67100524902344,-144.16700744628906 169.42100524902344,-145.625z M98.1709976196289,-47.70800018310547 C98.1709976196289,-47.70800018310547 -5.995999813079834,56.45800018310547 -5.995999813079834,56.45800018310547 C-10.163000106811523,60.41600036621094 -15.369999885559082,62.5 -20.78700065612793,62.5 C-26.20400047302246,62.5 -31.41200065612793,60.41600036621094 -35.57899856567383,56.45800018310547 C-35.57899856567383,56.45800018310547 -77.24600219726562,14.791999816894531 -77.24600219726562,14.791999816894531 C-85.37100219726562,6.666999816894531 -85.37100219726562,-6.666999816894531 -77.24600219726562,-14.791999816894531 C-69.12100219726562,-22.91699981689453 -55.7869987487793,-22.91699981689453 -47.6619987487793,-14.791999816894531 C-47.6619987487793,-14.791999816894531 -20.78700065612793,12.291999816894531 -20.78700065612793,12.291999816894531 C-20.78700065612793,12.291999816894531 68.58799743652344,-77.29199981689453 68.58799743652344,-77.29199981689453 C76.71299743652344,-85.41699981689453 90.0459976196289,-85.41699981689453 98.1709976196289,-77.29199981689453 C106.2959976196289,-69.16699981689453 106.2959976196289,-55.83300018310547 98.1709976196289,-47.70800018310547z"/></g></g><g class="primary design" transform="matrix(1,0,0,1,250,250)" opacity="1" style="display: none;"><g opacity="1" transform="matrix(1,0,0,1,0,0)"><path class="primary" fill="rgb(227,227,227)" fill-opacity="1" d=" M169.42100524902344,-145.625 C135.46299743652344,-150 41.0880012512207,-165.625 11.088000297546387,-184.375 C4.421000003814697,-188.54200744628906 -4.328999996185303,-188.54200744628906 -10.996000289916992,-184.375 C-40.99599838256836,-165.625 -135.37100219726562,-150 -169.32899475097656,-145.625 C-180.57899475097656,-144.16700744628906 -188.49600219726562,-133.95799255371094 -187.24600219726562,-122.70800018310547 C-187.24600219726562,-122.70800018310547 -180.37100219726562,-60.83300018310547 -180.37100219726562,-60.83300018310547 C-167.87100219726562,33.95899963378906 -114.74500274658203,117.70899963378906 -34.5369987487793,169.16700744628906 C-34.5369987487793,169.16700744628906 -11.204000473022461,184.16700744628906 -11.204000473022461,184.16700744628906 C-7.870999813079834,186.45899963378906 -3.9119999408721924,187.5 0.04600000008940697,187.5 C4.004000186920166,187.5 7.9629998207092285,186.45899963378906 11.295999526977539,184.16700744628906 C11.295999526977539,184.16700744628906 34.62900161743164,169.16700744628906 34.62900161743164,169.16700744628906 C114.62899780273438,117.70899963378906 167.96299743652344,33.95800018310547 180.46299743652344,-61.25 C180.46299743652344,-61.25 187.33799743652344,-122.70800018310547 187.33799743652344,-122.70800018310547 C188.58799743652344,-133.95799255371094 180.67100524902344,-144.16700744628906 169.42100524902344,-145.625z M98.1709976196289,-47.70800018310547 C98.1709976196289,-47.70800018310547 -5.995999813079834,56.45800018310547 -5.995999813079834,56.45800018310547 C-10.163000106811523,60.41600036621094 -15.369999885559082,62.5 -20.78700065612793,62.5 C-26.20400047302246,62.5 -31.41200065612793,60.41600036621094 -35.57899856567383,56.45800018310547 C-35.57899856567383,56.45800018310547 -77.24600219726562,14.791999816894531 -77.24600219726562,14.791999816894531 C-85.37100219726562,6.666999816894531 -85.37100219726562,-6.666999816894531 -77.24600219726562,-14.791999816894531 C-69.12100219726562,-22.91699981689453 -55.7869987487793,-22.91699981689453 -47.6619987487793,-14.791999816894531 C-47.6619987487793,-14.791999816894531 -20.78700065612793,12.291999816894531 -20.78700065612793,12.291999816894531 C-20.78700065612793,12.291999816894531 68.58799743652344,-77.29199981689453 68.58799743652344,-77.29199981689453 C76.71299743652344,-85.41699981689453 90.0459976196289,-85.41699981689453 98.1709976196289,-77.29199981689453 C106.2959976196289,-69.16699981689453 106.2959976196289,-55.83300018310547 98.1709976196289,-47.70800018310547z"/></g></g></g></g></svg>