<svg xmlns="http://www.w3.org/2000/svg" xmlns:xlink="http://www.w3.org/1999/xlink" viewBox="0 0 500 500" width="500" height="500" preserveAspectRatio="xMidYMid meet" style="width: 100%; height: 100%; transform: translate3d(0px, 0px, 0px); content-visibility: visible;"><defs><clipPath id="__lottie_element_2858"><rect width="500" height="500" x="0" y="0"/></clipPath><clipPath id="__lottie_element_2860"><path d="M0,0 L500,0 L500,500 L0,500z"/></clipPath></defs><g clip-path="url(#__lottie_element_2858)"><g clip-path="url(#__lottie_element_2860)" transform="matrix(1,0,0,1,0,0)" opacity="1" style="display: block;"><g class="primary design" style="display: none;"><g><path stroke-linecap="round" stroke-linejoin="round" fill-opacity="0" class="primary"/></g><g><path stroke-linecap="round" stroke-linejoin="round" fill-opacity="0" class="primary"/></g><g><path stroke-linecap="round" stroke-linejoin="round" fill-opacity="0" class="primary"/></g><g><path stroke-linecap="round" stroke-linejoin="round" fill-opacity="0" class="primary"/></g><g><path stroke-linecap="round" stroke-linejoin="round" fill-opacity="0" class="primary"/></g></g><g class="primary design" transform="matrix(20.829999923706055,0,0,20.829999923706055,-4957.501953125,-4957.50390625)" opacity="1" style="display: block;"><g opacity="1" transform="matrix(1,0,0,1,250,244)"><path class="primary" fill="rgb(18,19,49)" fill-opacity="1" d=" M8,-2 C8,-2 -8,-2 -8,-2 C-9.100000381469727,-2 -10,-1.100000023841858 -10,0 C-10,0 -10,2 -10,2 C-10,2 -9,2 -9,2 C-9,2 -8,2 -8,2 C-8,2 8,2 8,2 C8,2 9,2 9,2 C9,2 10,2 10,2 C10,2 10,0 10,0 C10,-1.100000023841858 9.100000381469727,-2 8,-2z"/></g><g opacity="1" transform="matrix(1,0,0,1,250,253)"><path class="primary" fill="rgb(18,19,49)" fill-opacity="1" d=" M8,-5 C8,-5 -8,-5 -8,-5 C-8,-5 -9,-5 -9,-5 C-9,-5 -10,-5 -10,-5 C-10,-5 -10,3 -10,3 C-10,4.099999904632568 -9.100000381469727,5 -8,5 C-8,5 8,5 8,5 C9.100000381469727,5 10,4.099999904632568 10,3 C10,3 10,-5 10,-5 C10,-5 9,-5 9,-5 C9,-5 8,-5 8,-5z M-7,0 C-7,0 -3,0 -3,0 C-2.450000047683716,0 -2,0.44999998807907104 -2,1 C-2,1.5499999523162842 -2.450000047683716,2 -3,2 C-3,2 -7,2 -7,2 C-7.550000190734863,2 -8,1.5499999523162842 -8,1 C-8,0.44999998807907104 -7.550000190734863,0 -7,0z"/></g></g></g></g></svg>