<svg xmlns="http://www.w3.org/2000/svg" xmlns:xlink="http://www.w3.org/1999/xlink" viewBox="0 0 500 500" width="500" height="500" preserveAspectRatio="xMidYMid meet" style="width: 100%; height: 100%; transform: translate3d(0px, 0px, 0px); content-visibility: visible;"><defs><clipPath id="__lottie_element_1717"><rect width="500" height="500" x="0" y="0"/></clipPath><clipPath id="__lottie_element_1719"><path d="M0,0 L500,0 L500,500 L0,500z"/></clipPath></defs><g clip-path="url(#__lottie_element_1717)"><g clip-path="url(#__lottie_element_1719)" transform="matrix(1,0,0,1,0,0)" opacity="1" style="display: block;"><g class="primary design" transform="matrix(1,0,0,1,250,250)" opacity="1" style="display: block;"><g opacity="1" transform="matrix(1,0,0,1,0,0)"><path class="primary" fill="rgb(18,19,49)" fill-opacity="1" d=" M83.37899780273438,-208.33299255371094 C83.37899780273438,-208.33299255371094 -83.28700256347656,-208.33299255371094 -83.28700256347656,-208.33299255371094 C-117.66200256347656,-208.33299255371094 -145.78700256347656,-180.20799255371094 -145.78700256347656,-145.83299255371094 C-145.78700256347656,-145.83299255371094 -145.78700256347656,145.83299255371094 -145.78700256347656,145.83299255371094 C-145.78700256347656,180.20799255371094 -117.66200256347656,208.33299255371094 -83.28700256347656,208.33299255371094 C-83.28700256347656,208.33299255371094 83.37899780273438,208.33299255371094 83.37899780273438,208.33299255371094 C117.75399780273438,208.33299255371094 145.87899780273438,180.20799255371094 145.87899780273438,145.83299255371094 C145.87899780273438,145.83299255371094 145.87899780273438,-145.83299255371094 145.87899780273438,-145.83299255371094 C145.87899780273438,-180.20799255371094 117.75399780273438,-208.33299255371094 83.37899780273438,-208.33299255371094z M20.878999710083008,145.83299255371094 C20.878999710083008,145.83299255371094 -20.78700065612793,145.83299255371094 -20.78700065612793,145.83299255371094 C-32.244998931884766,145.83299255371094 -41.62099838256836,136.45799255371094 -41.62099838256836,125 C-41.62099838256836,113.54199981689453 -32.244998931884766,104.16699981689453 -20.78700065612793,104.16699981689453 C-20.78700065612793,104.16699981689453 20.878999710083008,104.16699981689453 20.878999710083008,104.16699981689453 C32.33700180053711,104.16699981689453 41.7130012512207,113.54199981689453 41.7130012512207,125 C41.7130012512207,136.45799255371094 32.33700180053711,145.83299255371094 20.878999710083008,145.83299255371094z"/></g></g></g></g></svg>