<svg xmlns="http://www.w3.org/2000/svg" xmlns:xlink="http://www.w3.org/1999/xlink" viewBox="0 0 240 240" width="240" height="240" preserveAspectRatio="xMidYMid meet" style="width: 100%; height: 100%; transform: translate3d(0px, 0px, 0px); content-visibility: visible;"><defs><clipPath id="__lottie_element_933"><rect width="240" height="240" x="0" y="0"/></clipPath><clipPath id="__lottie_element_935"><path d="M0,0 L240,0 L240,240 L0,240z"/></clipPath></defs><g clip-path="url(#__lottie_element_933)"><g clip-path="url(#__lottie_element_935)" transform="matrix(1,0,0,1,0,0)" opacity="1" style="display: block;"><g transform="matrix(1,0,0,1,120,120)" opacity="1" style="display: block;"><g opacity="1" transform="matrix(1,0,0,1,0,0)"><path class="primary" fill="rgb(18,19,49)" fill-opacity="1" d=" M-85,0 C-85,-46.944000244140625 -46.944000244140625,-85 0,-85 C46.944000244140625,-85 85,-46.944000244140625 85,0 C85,21.136999130249023 77.26000213623047,40.45100021362305 64.49199676513672,55.321998596191406 C56.5260009765625,40.268001556396484 40.722999572753906,30.00200080871582 22.5,30 C22.5,30 -22.5,30 -22.5,30 C-40.7239990234375,30.00200080871582 -56.5359992980957,40.26599884033203 -64.50199890136719,55.321998596191406 C-77.26799774169922,40.45199966430664 -85,21.135000228881836 -85,0z M-53.027000427246094,66.40599822998047 C-48.49100112915039,53.92499923706055 -36.54100036621094,45.00199890136719 -22.5,45 C-22.5,45 22.5,45 22.5,45 C36.53799819946289,45.00199890136719 48.48899841308594,53.91899871826172 53.027000427246094,66.39600372314453 C44.79999923706055,72.9749984741211 35.33000183105469,78.06500244140625 25.023000717163086,81.24500274658203 C17.11400032043457,83.68499755859375 8.711999893188477,85 0,85 C-8.86299991607666,85 -17.406999588012695,83.63999938964844 -25.437000274658203,81.11900329589844 C-35.58399963378906,77.93399810791016 -44.9109992980957,72.89600372314453 -53.027000427246094,66.40599822998047z M100,0 C100,-55.22800064086914 55.22800064086914,-100 0,-100 C-55.22800064086914,-100 -100,-55.22800064086914 -100,0 C-100,55.22800064086914 -55.22800064086914,100 0,100 C25.643999099731445,100 49.01900100708008,90.33300018310547 66.71900177001953,74.46299743652344 C66.75599670410156,74.4280014038086 66.80000305175781,74.4010009765625 66.83599853515625,74.36499786376953 C87.19000244140625,56.060001373291016 100,29.530000686645508 100,0z"/></g></g><g transform="matrix(1,0,0,1,0,2.756866455078125)" opacity="1" style="display: block;"><g opacity="1" transform="matrix(1,0,0,1,120,120)"><g opacity="1" transform="matrix(1,0,0,1,0,0)"><path class="primary" fill="rgb(18,19,49)" fill-opacity="1" d=" M33.90299987792969,-25 C33.90299987792969,-43.7239990234375 18.724000930786133,-58.90299987792969 0,-58.90299987792969 C-18.724000930786133,-58.90299987792969 -33.90299987792969,-43.7239990234375 -33.90299987792969,-25 C-33.90299987792969,-6.276000022888184 -18.724000930786133,8.902999877929688 0,8.902999877929688 C18.724000930786133,8.902999877929688 33.90299987792969,-6.276000022888184 33.90299987792969,-25z"/></g></g></g><g transform="matrix(1,0,0,1,120,122.75686645507812)" opacity="1" style="display: block;"><g opacity="1" transform="matrix(1,0,0,1,0,0)"><path class="primary" fill="rgb(18,19,49)" fill-opacity="1" d=" M-25,-25 C-25,-38.80699920654297 -13.807000160217285,-50 0,-50 C13.807000160217285,-50 25,-38.80699920654297 25,-25 C25,-11.192999839782715 13.807000160217285,0 0,0 C-13.807000160217285,0 -25,-11.192999839782715 -25,-25z M40,-25 C40,-47.090999603271484 22.090999603271484,-65 0,-65 C-22.090999603271484,-65 -40,-47.090999603271484 -40,-25 C-40,-2.9089999198913574 -22.090999603271484,15 0,15 C22.090999603271484,15 40,-2.9089999198913574 40,-25z"/></g></g><g transform="matrix(1,0,0,1,0,0)" opacity="1" style="display: block;"><g opacity="1" transform="matrix(1,0,0,1,120,120)"><g opacity="1" transform="matrix(1,0,0,1,0,0)"><path class="primary" fill="rgb(18,19,49)" fill-opacity="1" d=" M0.17100000381469727,91.76599884033203 C40.073001861572266,91.76599884033203 60.33300018310547,69.5989990234375 55.05099868774414,60.63100051879883 C48.279998779296875,47.834999084472656 34.84700012207031,39.10900115966797 19.357999801635742,39.108001708984375 C19.357999801635742,39.108001708984375 -18.891000747680664,39.108001708984375 -18.891000747680664,39.108001708984375 C-34.38100051879883,39.10900115966797 -47.82099914550781,47.83399963378906 -54.59199905395508,60.63100051879883 C-57.527000427246094,71.17900085449219 -39.73099899291992,91.76599884033203 0.17100000381469727,91.76599884033203z"/></g></g></g></g></g></svg>