<svg xmlns="http://www.w3.org/2000/svg" xmlns:xlink="http://www.w3.org/1999/xlink" viewBox="0 0 500 500" width="500" height="500" preserveAspectRatio="xMidYMid meet" style="width: 100%; height: 100%; transform: translate3d(0px, 0px, 0px); content-visibility: visible;"><defs><clipPath id="__lottie_element_3306"><rect width="500" height="500" x="0" y="0"/></clipPath><clipPath id="__lottie_element_3308"><path d="M0,0 L500,0 L500,500 L0,500z"/></clipPath></defs><g clip-path="url(#__lottie_element_3306)"><g clip-path="url(#__lottie_element_3308)" transform="matrix(1,0,0,1,0,0)" opacity="1" style="display: block;"><g class="primary design" transform="matrix(1,0,0,1,0,0)" opacity="1" style="display: block;"><g opacity="1" transform="matrix(1,0,0,1,250.04600524902344,125)"><path class="primary" fill="rgb(18,19,49)" fill-opacity="1" d=" M-125,62.5 C-97.55699920654297,62.5 -74.50299835205078,44.69900131225586 -66.0999984741211,20.101999282836914 C-64.88700103759766,20.325000762939453 -63.775001525878906,20.83300018310547 -62.5,20.83300018310547 C-62.5,20.83300018310547 166.66700744628906,20.83300018310547 166.66700744628906,20.83300018310547 C178.125,20.83300018310547 187.5,11.458000183105469 187.5,0 C187.5,-11.458000183105469 178.125,-20.83300018310547 166.66700744628906,-20.83300018310547 C166.66700744628906,-20.83300018310547 -62.5,-20.83300018310547 -62.5,-20.83300018310547 C-63.775001525878906,-20.83300018310547 -64.88700103759766,-20.325000762939453 -66.0999984741211,-20.101999282836914 C-74.50299835205078,-44.69900131225586 -97.55699920654297,-62.5 -125,-62.5 C-159.51800537109375,-62.5 -187.5,-34.518001556396484 -187.5,0 C-187.5,34.518001556396484 -159.51800537109375,62.5 -125,62.5z"/></g><g opacity="1" transform="matrix(1,0,0,1,250.04600524902344,375)"><path class="primary" fill="rgb(18,19,49)" fill-opacity="1" d=" M166.66700744628906,-20.83300018310547 C166.66700744628906,-20.83300018310547 -62.5,-20.83300018310547 -62.5,-20.83300018310547 C-63.775001525878906,-20.83300018310547 -64.88700103759766,-20.325000762939453 -66.0999984741211,-20.101999282836914 C-74.50299835205078,-44.69900131225586 -97.55699920654297,-62.5 -125,-62.5 C-159.51800537109375,-62.5 -187.5,-34.518001556396484 -187.5,0 C-187.5,34.518001556396484 -159.51800537109375,62.5 -125,62.5 C-97.55699920654297,62.5 -74.50299835205078,44.69900131225586 -66.0999984741211,20.101999282836914 C-64.88700103759766,20.325000762939453 -63.775001525878906,20.83300018310547 -62.5,20.83300018310547 C-62.5,20.83300018310547 166.66700744628906,20.83300018310547 166.66700744628906,20.83300018310547 C178.125,20.83300018310547 187.5,11.458000183105469 187.5,0 C187.5,-11.458000183105469 178.125,-20.83300018310547 166.66700744628906,-20.83300018310547z"/></g><g opacity="1" transform="matrix(1,0,0,1,250.04600524902344,250)"><path class="primary" fill="rgb(18,19,49)" fill-opacity="1" d=" M166.66700744628906,-20.83300018310547 C166.66700744628906,-20.83300018310547 125,-20.83300018310547 125,-20.83300018310547 C123.7249984741211,-20.83300018310547 122.61299896240234,-20.325000762939453 121.4000015258789,-20.101999282836914 C112.99700164794922,-44.69900131225586 89.94300079345703,-62.5 62.5,-62.5 C35.32699966430664,-62.5 12.437000274658203,-45.053001403808594 3.8269999027252197,-20.83300018310547 C3.8269999027252197,-20.83300018310547 -166.66700744628906,-20.83300018310547 -166.66700744628906,-20.83300018310547 C-178.125,-20.83300018310547 -187.5,-11.458000183105469 -187.5,0 C-187.5,11.458000183105469 -178.125,20.83300018310547 -166.66700744628906,20.83300018310547 C-166.66700744628906,20.83300018310547 3.8269999027252197,20.83300018310547 3.8269999027252197,20.83300018310547 C12.437000274658203,45.053001403808594 35.32699966430664,62.5 62.5,62.5 C89.94300079345703,62.5 112.99700164794922,44.69900131225586 121.4000015258789,20.101999282836914 C122.61299896240234,20.325000762939453 123.7249984741211,20.83300018310547 125,20.83300018310547 C125,20.83300018310547 166.66700744628906,20.83300018310547 166.66700744628906,20.83300018310547 C178.125,20.83300018310547 187.5,11.458000183105469 187.5,0 C187.5,-11.458000183105469 178.125,-20.83300018310547 166.66700744628906,-20.83300018310547z"/></g></g></g></g></svg>