<svg xmlns="http://www.w3.org/2000/svg" xmlns:xlink="http://www.w3.org/1999/xlink" viewBox="0 0 500 500" width="500" height="500" preserveAspectRatio="xMidYMid meet" style="width: 100%; height: 100%; transform: translate3d(0px, 0px, 0px); content-visibility: visible;"><defs><clipPath id="__lottie_element_3120"><rect width="500" height="500" x="0" y="0"/></clipPath><clipPath id="__lottie_element_3122"><path d="M0,0 L500,0 L500,500 L0,500z"/></clipPath></defs><g clip-path="url(#__lottie_element_3120)"><g clip-path="url(#__lottie_element_3122)" transform="matrix(1,0,0,1,0,0)" opacity="1" style="display: block;"><g class="primary design" transform="matrix(1,0,0,1,0,0)" opacity="1" style="display: block;"><g opacity="1" transform="matrix(1,0,0,1,250.04600524902344,422.5010070800781)"><path class="primary" fill="rgb(18,19,49)" fill-opacity="1" d=" M166.66700744628906,-15.625 C166.66700744628906,-15.625 -166.66700744628906,-15.625 -166.66700744628906,-15.625 C-175.20799255371094,-15.625 -182.29200744628906,-8.541999816894531 -182.29200744628906,0 C-182.29200744628906,8.541000366210938 -175.20799255371094,15.625 -166.66700744628906,15.625 C-166.66700744628906,15.625 166.66700744628906,15.625 166.66700744628906,15.625 C175.20799255371094,15.625 182.29200744628906,8.541000366210938 182.29200744628906,0 C182.29200744628906,-8.541999816894531 175.20799255371094,-15.625 166.66700744628906,-15.625z"/></g><g opacity="1" transform="matrix(1,0,0,1,250.04600524902344,360.625)"><path class="primary" fill="rgb(18,19,49)" fill-opacity="1" d=" M166.66700744628906,-15.625 C166.66700744628906,-15.625 -166.66700744628906,-15.625 -166.66700744628906,-15.625 C-175.20799255371094,-15.625 -182.29200744628906,-8.541000366210938 -182.29200744628906,0 C-182.29200744628906,8.541000366210938 -175.20799255371094,15.625 -166.66700744628906,15.625 C-166.66700744628906,15.625 166.66700744628906,15.625 166.66700744628906,15.625 C175.20799255371094,15.625 182.29200744628906,8.541000366210938 182.29200744628906,0 C182.29200744628906,-8.541000366210938 175.20799255371094,-15.625 166.66700744628906,-15.625z"/></g><g opacity="1" transform="matrix(1,0,0,1,250.04600524902344,187.5)"><path class="primary" fill="rgb(18,19,49)" fill-opacity="1" d=" M0,-41.66699981689453 C-23.011999130249023,-41.66699981689453 -41.66699981689453,-23.011999130249023 -41.66699981689453,0 C-41.66699981689453,23.011999130249023 -23.011999130249023,41.66699981689453 0,41.66699981689453 C23.011999130249023,41.66699981689453 41.66699981689453,23.011999130249023 41.66699981689453,0 C41.66699981689453,-23.011999130249023 23.011999130249023,-41.66699981689453 0,-41.66699981689453z"/></g><g opacity="1" transform="matrix(1,0,0,1,250.04600524902344,187.5)"><path class="primary" fill="rgb(18,19,49)" fill-opacity="1" d=" M166.66700744628906,-125 C166.66700744628906,-125 -166.66700744628906,-125 -166.66700744628906,-125 C-178.125,-125 -187.5,-115.625 -187.5,-104.16699981689453 C-187.5,-104.16699981689453 -187.5,104.16699981689453 -187.5,104.16699981689453 C-187.5,115.625 -178.125,125 -166.66700744628906,125 C-166.66700744628906,125 166.66700744628906,125 166.66700744628906,125 C178.125,125 187.5,115.625 187.5,104.16699981689453 C187.5,104.16699981689453 187.5,-104.16699981689453 187.5,-104.16699981689453 C187.5,-115.625 178.125,-125 166.66700744628906,-125z M145.83299255371094,31.458999633789062 C118.75,34.375999450683594 96.8759994506836,56.25 93.95899963378906,83.33300018310547 C93.95899963378906,83.33300018310547 -93.95899963378906,83.33300018310547 -93.95899963378906,83.33300018310547 C-96.8759994506836,56.25 -118.75,34.375999450683594 -145.83299255371094,31.458999633789062 C-145.83299255371094,31.458999633789062 -145.83299255371094,-32.29100036621094 -145.83299255371094,-32.29100036621094 C-119.79100036621094,-36.66600036621094 -99.16600036621094,-57.29100036621094 -94.79100036621094,-83.33300018310547 C-94.79100036621094,-83.33300018310547 93.95899963378906,-83.33300018310547 93.95899963378906,-83.33300018310547 C96.8759994506836,-56.25 118.75,-34.375999450683594 145.83299255371094,-31.458999633789062 C145.83299255371094,-31.458999633789062 145.83299255371094,31.458999633789062 145.83299255371094,31.458999633789062z"/></g></g></g></g></svg>