<svg xmlns="http://www.w3.org/2000/svg" xmlns:xlink="http://www.w3.org/1999/xlink" viewBox="0 0 500 500" width="500" height="500" preserveAspectRatio="xMidYMid meet" style="width: 100%; height: 100%; transform: translate3d(0px, 0px, 0px); content-visibility: visible;"><defs><clipPath id="__lottie_element_1193"><rect width="500" height="500" x="0" y="0"/></clipPath><clipPath id="__lottie_element_1195"><path d="M0,0 L500,0 L500,500 L0,500z"/></clipPath></defs><g clip-path="url(#__lottie_element_1193)"><g clip-path="url(#__lottie_element_1195)" transform="matrix(1,0,0,1,0,0)" opacity="1" style="display: block;"><g class="primary design" transform="matrix(0.9999991655349731,-0.0012867209734395146,0.0012867209734395146,0.9999991655349731,249.9980010986328,250.00399780273438)" opacity="1" style="display: none;"><path class="primary" fill="rgb(18,19,49)" fill-opacity="1" d=" M171.69163513183594,-119.66719818115234 C171.69163513183594,-119.66719818115234 164.5702362060547,-65.53001403808594 164.5702362060547,-65.53001403808594 C152.59303283691406,25.52174186706543 101.12998962402344,106.68006896972656 23.879497528076172,156.34303283691406 C23.879497528076172,156.34303283691406 0.006992006674408913,171.68963623046875 0.006992006674408913,171.68963623046875 C0.006992006674408913,171.68963623046875 0,171.69163513183594 0,171.69163513183594 C0,171.69163513183594 -23.878496170043945,156.34103393554688 -23.878496170043945,156.34103393554688 C-101.1259994506836,106.68006896972656 -152.5870361328125,25.525741577148438 -164.56724548339844,-65.52201843261719 C-164.56724548339844,-65.52201843261719 -171.69163513183594,-119.66719818115234 -171.69163513183594,-119.66719818115234 C-171.69163513183594,-119.66719818115234 -41.62154769897461,-145.680419921875 0,-171.69163513183594 C41.6225471496582,-145.680419921875 171.69163513183594,-119.66719818115234 171.69163513183594,-119.66719818115234z"/><g opacity="1" transform="matrix(1,0,0,1,0,0)"><path stroke-linecap="round" stroke-linejoin="round" fill-opacity="0" class="primary" stroke="rgb(18,19,49)" stroke-opacity="1" stroke-width="31.3" d=" M171.69163513183594,-119.66719818115234 C171.69163513183594,-119.66719818115234 164.5702362060547,-65.53001403808594 164.5702362060547,-65.53001403808594 C152.59303283691406,25.52174186706543 101.12998962402344,106.68006896972656 23.879497528076172,156.34303283691406 C23.879497528076172,156.34303283691406 0.006992006674408913,171.68963623046875 0.006992006674408913,171.68963623046875 C0.006992006674408913,171.68963623046875 0,171.69163513183594 0,171.69163513183594 C0,171.69163513183594 -23.878496170043945,156.34103393554688 -23.878496170043945,156.34103393554688 C-101.1259994506836,106.68006896972656 -152.5870361328125,25.525741577148438 -164.56724548339844,-65.52201843261719 C-164.56724548339844,-65.52201843261719 -171.69163513183594,-119.66719818115234 -171.69163513183594,-119.66719818115234 C-171.69163513183594,-119.66719818115234 -41.62154769897461,-145.680419921875 0,-171.69163513183594 C41.6225471496582,-145.680419921875 171.69163513183594,-119.66719818115234 171.69163513183594,-119.66719818115234z"/></g></g><g class="primary design" transform="matrix(1,0,0,1,249.86399841308594,249.4739990234375)" opacity="1" style="display: block;"><g opacity="1" transform="matrix(1,0,0,1,0,0)"><path class="primary" fill="rgb(18,19,49)" fill-opacity="1" d=" M187.2790069580078,-117.67500305175781 C187.2790069580078,-117.67500305175781 180.19700622558594,-63.51100158691406 180.19700622558594,-63.51100158691406 C167.697998046875,32.316001892089844 113.74299621582031,117.30999755859375 32.290000915527344,169.59800720214844 C32.290000915527344,169.59800720214844 8.958000183105469,184.5970001220703 8.958000183105469,184.5970001220703 C6.25,186.4720001220703 3.125,187.51400756835938 0,187.51400756835938 C-2.9159998893737793,187.51400756835938 -5.833000183105469,186.68099975585938 -8.541000366210938,185.01400756835938 C-8.541000366210938,185.01400756835938 -32.290000915527344,169.59800720214844 -32.290000915527344,169.59800720214844 C-113.74299621582031,117.30999755859375 -167.69700622558594,32.316001892089844 -180.1959991455078,-63.51100158691406 C-180.1959991455078,-63.51100158691406 -187.2790069580078,-117.67500305175781 -187.2790069580078,-117.67500305175781 C-188.3209991455078,-125.79900360107422 -182.9040069580078,-133.50599670410156 -174.98800659179688,-135.17300415039062 C-139.57400512695312,-142.25599670410156 -40.41400146484375,-164.96299743652344 -8.333000183105469,-185.1699981689453 C-3.125,-188.2949981689453 3.125,-188.2949981689453 8.333000183105469,-185.1699981689453 C40.41400146484375,-164.96299743652344 139.5749969482422,-142.25599670410156 174.98899841308594,-135.17300415039062 C182.90499877929688,-133.50599670410156 188.3209991455078,-125.79900360107422 187.2790069580078,-117.67500305175781z"/></g></g><g class="primary design" transform="matrix(1,0,0,1,249.86399841308594,249.4739990234375)" opacity="1" style="display: none;"><g opacity="1" transform="matrix(1,0,0,1,0,0)"><path class="primary" fill="rgb(18,19,49)" fill-opacity="1" d=" M187.2790069580078,-117.67500305175781 C187.2790069580078,-117.67500305175781 180.19700622558594,-63.51100158691406 180.19700622558594,-63.51100158691406 C167.697998046875,32.316001892089844 113.74299621582031,117.30999755859375 32.290000915527344,169.59800720214844 C32.290000915527344,169.59800720214844 8.958000183105469,184.5970001220703 8.958000183105469,184.5970001220703 C6.25,186.4720001220703 3.125,187.51400756835938 0,187.51400756835938 C-2.9159998893737793,187.51400756835938 -5.833000183105469,186.68099975585938 -8.541000366210938,185.01400756835938 C-8.541000366210938,185.01400756835938 -32.290000915527344,169.59800720214844 -32.290000915527344,169.59800720214844 C-113.74299621582031,117.30999755859375 -167.69700622558594,32.316001892089844 -180.1959991455078,-63.51100158691406 C-180.1959991455078,-63.51100158691406 -187.2790069580078,-117.67500305175781 -187.2790069580078,-117.67500305175781 C-188.3209991455078,-125.79900360107422 -182.9040069580078,-133.50599670410156 -174.98800659179688,-135.17300415039062 C-139.57400512695312,-142.25599670410156 -40.41400146484375,-164.96299743652344 -8.333000183105469,-185.1699981689453 C-3.125,-188.2949981689453 3.125,-188.2949981689453 8.333000183105469,-185.1699981689453 C40.41400146484375,-164.96299743652344 139.5749969482422,-142.25599670410156 174.98899841308594,-135.17300415039062 C182.90499877929688,-133.50599670410156 188.3209991455078,-125.79900360107422 187.2790069580078,-117.67500305175781z"/></g></g></g></g></svg>