<svg xmlns="http://www.w3.org/2000/svg" xmlns:xlink="http://www.w3.org/1999/xlink" viewBox="0 0 500 500" width="500" height="500" preserveAspectRatio="xMidYMid meet" style="width: 100%; height: 100%; transform: translate3d(0px, 0px, 0px); content-visibility: visible;"><defs><clipPath id="__lottie_element_2030"><rect width="500" height="500" x="0" y="0"/></clipPath><clipPath id="__lottie_element_2032"><path d="M0,0 L500,0 L500,500 L0,500z"/></clipPath></defs><g clip-path="url(#__lottie_element_2030)"><g clip-path="url(#__lottie_element_2032)" transform="matrix(1,0,0,1,0,0)" opacity="1" style="display: block;"><g class="primary design" style="display: none;"><g><path stroke-linecap="round" stroke-linejoin="round" fill-opacity="0" class="primary"/></g><g><path stroke-linecap="round" stroke-linejoin="round" fill-opacity="0" class="primary"/></g></g><g class="primary design" transform="matrix(20.829999923706055,0,0,20.829999923706055,-4957.50390625,-4957.50732421875)" opacity="1" style="display: block;"><g opacity="1" transform="matrix(1,0,0,1,250,247.93899536132812)"><path class="primary" fill="rgb(18,19,49)" fill-opacity="1" d=" M7.889999866485596,6.61299991607666 C7.889999866485596,6.61299991607666 6.170000076293945,3.1730000972747803 6.170000076293945,3.1730000972747803 C6.099999904632568,3.052999973297119 6.070000171661377,2.9140000343322754 6.070000171661377,2.7639999389648438 C6.070000171661377,2.7639999389648438 6.070000171661377,0.10300000011920929 6.070000171661377,0.10300000011920929 C6.070000171661377,-2.88700008392334 3.869999885559082,-5.375999927520752 1,-5.8460001945495605 C1,-5.8460001945495605 1,-7.064000129699707 1,-7.064000129699707 C1,-7.616000175476074 0.5529999732971191,-8.064000129699707 0,-8.064000129699707 C-0.5529999732971191,-8.064000129699707 -1,-7.616000175476074 -1,-7.064000129699707 C-1,-7.064000129699707 -1,-5.8460001945495605 -1,-5.8460001945495605 C-3.869999885559082,-5.375999927520752 -6.070000171661377,-2.88700008392334 -6.070000171661377,0.10300000011920929 C-6.070000171661377,0.10300000011920929 -6.070000171661377,2.7639999389648438 -6.070000171661377,2.7639999389648438 C-6.070000171661377,2.9140000343322754 -6.099999904632568,3.052999973297119 -6.170000076293945,3.1730000972747803 C-6.170000076293945,3.1730000972747803 -7.889999866485596,6.61299991607666 -7.889999866485596,6.61299991607666 C-8.050000190734863,6.922999858856201 -8.029999732971191,7.294000148773193 -7.849999904632568,7.584000110626221 C-7.670000076293945,7.883999824523926 -7.349999904632568,8.064000129699707 -7,8.064000129699707 C-7,8.064000129699707 -3.25,8.064000129699707 -3.25,8.064000129699707 C-3.25,8.064000129699707 -2.25,8.064000129699707 -2.25,8.064000129699707 C-2.25,8.064000129699707 -1.25,8.064000129699707 -1.25,8.064000129699707 C-1.25,8.064000129699707 1.25,8.064000129699707 1.25,8.064000129699707 C1.25,8.064000129699707 2.25,8.064000129699707 2.25,8.064000129699707 C2.25,8.064000129699707 3.25,8.064000129699707 3.25,8.064000129699707 C3.25,8.064000129699707 7,8.064000129699707 7,8.064000129699707 C7.349999904632568,8.064000129699707 7.670000076293945,7.883999824523926 7.849999904632568,7.584000110626221 C8.029999732971191,7.294000148773193 8.050000190734863,6.922999858856201 7.889999866485596,6.61299991607666z"/></g><g opacity="1" transform="matrix(1,0,0,1,250,258.75201416015625)"><path class="primary" fill="rgb(18,19,49)" fill-opacity="1" d=" M1,-1.25 C1,-1.25 -1,-1.25 -1,-1.25 C-1,-1.25 -2.119999885559082,-1.25 -2.119999885559082,-1.25 C-2.119999885559082,-1.25 -3.1500000953674316,-1.25 -3.1500000953674316,-1.25 C-2.819999933242798,0.18000000715255737 -1.5299999713897705,1.25 0,1.25 C1.5299999713897705,1.25 2.819999933242798,0.18000000715255737 3.1500000953674316,-1.25 C3.1500000953674316,-1.25 2.119999885559082,-1.25 2.119999885559082,-1.25 C2.119999885559082,-1.25 1,-1.25 1,-1.25z"/></g></g></g></g></svg>