<svg xmlns="http://www.w3.org/2000/svg" xmlns:xlink="http://www.w3.org/1999/xlink" viewBox="0 0 500 500" width="500" height="500" preserveAspectRatio="xMidYMid meet" style="width: 100%; height: 100%; transform: translate3d(0px, 0px, 0px); content-visibility: visible;"><defs><clipPath id="__lottie_element_3522"><rect width="500" height="500" x="0" y="0"/></clipPath><clipPath id="__lottie_element_3524"><path d="M0,0 L500,0 L500,500 L0,500z"/></clipPath></defs><g clip-path="url(#__lottie_element_3522)"><g clip-path="url(#__lottie_element_3524)" transform="matrix(1,0,0,1,0,0)" opacity="1" style="display: block;"><g class="primary design" transform="matrix(20.829999923706055,0,0,20.829999923706055,-4957.49853515625,-4957.509765625)" opacity="1" style="display: block;"><g opacity="1" transform="matrix(1,0,0,1,0,0)"><path stroke-linecap="butt" stroke-linejoin="miter" fill-opacity="0" stroke-miterlimit="4" class="primary" stroke="rgb(18,19,49)" stroke-opacity="1" stroke-width="2" d="M0 0"/></g><g opacity="1" transform="matrix(1,0,0,1,249.75,242)"><path class="primary" fill="rgb(18,19,49)" fill-opacity="1" d=" M-0.15000000596046448,2 C-0.15000000596046448,2 0.949999988079071,2 0.949999988079071,2 C1.3919999599456787,2 1.75,1.6419999599456787 1.75,1.2000000476837158 C1.75,1.2000000476837158 1.75,-0.4000000059604645 1.75,-0.4000000059604645 C1.75,-1.284000039100647 1.034000039100647,-2 0.15000000596046448,-2 C0.15000000596046448,-2 -0.15000000596046448,-2 -0.15000000596046448,-2 C-1.034000039100647,-2 -1.75,-1.284000039100647 -1.75,-0.4000000059604645 C-1.75,-0.4000000059604645 -1.75,0.4000000059604645 -1.75,0.4000000059604645 C-1.75,1.284000039100647 -1.034000039100647,2 -0.15000000596046448,2z"/></g><g opacity="1" transform="matrix(1,0,0,1,253,252)"><path class="primary" fill="rgb(18,19,49)" fill-opacity="1" d=" M5,5 C5,5 3.7720000743865967,5 3.7720000743865967,5 C3.7720000743865967,5 2.872999906539917,1.4539999961853027 2.872999906539917,1.4539999961853027 C2.631999969482422,0.6100000143051147 1.8489999771118164,0.020999999716877937 0.968999981880188,0.020999999716877937 C0.968999981880188,0.020999999716877937 -1,0.007000000216066837 -1,0.007000000216066837 C-1,0.007000000216066837 -1,-1.9620000123977661 -1,-1.9620000123977661 C-1,-1.9620000123977661 1.975000023841858,-1.9620000123977661 1.975000023841858,-1.9620000123977661 C2.5280001163482666,-1.9620000123977661 2.9749999046325684,-2.4100000858306885 2.9749999046325684,-2.9619998931884766 C2.9749999046325684,-3.5139999389648438 2.5280001163482666,-3.9619998931884766 1.975000023841858,-3.9619998931884766 C1.975000023841858,-3.9619998931884766 -1,-3.9619998931884766 -1,-3.9619998931884766 C-1,-3.9619998931884766 -1,-4.269999980926514 -1,-4.269999980926514 C-1,-4.269999980926514 -1.0160000324249268,-4.269999980926514 -1.0160000324249268,-4.269999980926514 C-1.0160000324249268,-4.269999980926514 -1.0160000324249268,-4.426000118255615 -1.0160000324249268,-4.426000118255615 C-1.0160000324249268,-5.86899995803833 -2.0989999771118164,-7 -3.4820001125335693,-7 C-4.894000053405762,-7 -6,-5.870999813079834 -6,-4.428999900817871 C-6,-4.428999900817871 -6,-0.014999999664723873 -6,-0.014999999664723873 C-6,1.1080000400543213 -5.084000110626221,2.0209999084472656 -3.9579999446868896,2.0209999084472656 C-3.9579999446868896,2.0209999084472656 0.9419999718666077,1.975000023841858 0.9419999718666077,1.975000023841858 C0.9419999718666077,1.975000023841858 2.0239999294281006,6.245999813079834 2.0239999294281006,6.245999813079834 C2.135999917984009,6.690000057220459 2.5360000133514404,7 2.99399995803833,7 C2.99399995803833,7 5,7 5,7 C5.552999973297119,7 6,6.552000045776367 6,6 C6,5.447999954223633 5.552999973297119,5 5,5z"/></g><g opacity="1" transform="matrix(1,0,0,1,246.80799865722656,254.3040008544922)"><path class="primary" fill="rgb(18,19,49)" fill-opacity="1" d=" M5.186999797821045,1.1640000343322754 C4.697999954223633,0.902999997138977 4.093999862670898,1.0870000123977661 3.8329999446868896,1.5740000009536743 C3.0769999027252197,2.984999895095825 1.6970000267028809,3.7720000743865967 0.15299999713897705,3.6989998817443848 C-1.437000036239624,3.615999937057495 -2.76200008392334,2.6459999084472656 -3.3919999599456787,1.1039999723434448 C-3.744999885559082,0.24199999868869781 -3.811000108718872,-0.7160000205039978 -3.5820000171661377,-1.5920000076293945 C-3.1489999294281006,-3.25 -2.062999963760376,-3.747999906539917 -1.9950000047683716,-3.7780001163482666 C-1.4889999628067017,-3.9839999675750732 -1.2410000562667847,-4.558000087738037 -1.440000057220459,-5.067999839782715 C-1.6410000324249268,-5.583000183105469 -2.2209999561309814,-5.835999965667725 -2.7360000610351562,-5.636000156402588 C-2.819999933242798,-5.603000164031982 -4.811999797821045,-4.796999931335449 -5.51800012588501,-2.0980000495910645 C-5.855999946594238,-0.8059999942779541 -5.757999897003174,0.6000000238418579 -5.243000030517578,1.8609999418258667 C-4.326000213623047,4.105000019073486 -2.2980000972747803,5.573999881744385 0.05000000074505806,5.696000099182129 C0.15399999916553497,5.701000213623047 0.25600001215934753,5.704999923706055 0.36000001430511475,5.704999923706055 C2.546999931335449,5.704999923706055 4.533999919891357,4.504000186920166 5.5970001220703125,2.5169999599456787 C5.857999801635742,2.0299999713897705 5.673999786376953,1.4249999523162842 5.186999797821045,1.1640000343322754z"/></g></g></g></g></svg>