<svg xmlns="http://www.w3.org/2000/svg" xmlns:xlink="http://www.w3.org/1999/xlink" viewBox="0 0 500 500" width="500" height="500" preserveAspectRatio="xMidYMid meet" style="width: 100%; height: 100%; transform: translate3d(0px, 0px, 0px); content-visibility: visible;"><defs><clipPath id="__lottie_element_5565"><rect width="500" height="500" x="0" y="0"/></clipPath><clipPath id="__lottie_element_5567"><path d="M0,0 L500,0 L500,500 L0,500z"/></clipPath></defs><g clip-path="url(#__lottie_element_5565)"><g clip-path="url(#__lottie_element_5567)" transform="matrix(1,0,0,1,0,0)" opacity="1" style="display: block;"><g class="primary design" transform="matrix(20.829999923706055,0,0,20.829999923706055,249.9980010986328,249.99600219726562)" opacity="1" style="display: block;"><g opacity="1" transform="matrix(1,0,0,1,0,0)"><path class="primary" fill="rgb(18,19,49)" fill-opacity="1" d=" M9.567000389099121,-4.822999954223633 C9.295999526977539,-5.010000228881836 8.95300006866455,-5.052999973297119 8.645000457763672,-4.934999942779541 C8.645000457763672,-4.934999942779541 5,-3.546999931335449 5,-3.546999931335449 C5,-3.546999931335449 5,-4 5,-4 C5,-5.6539998054504395 3.6540000438690186,-7 2,-7 C2,-7 -7,-7 -7,-7 C-8.654000282287598,-7 -10,-5.6539998054504395 -10,-4 C-10,-4 -10,4 -10,4 C-10,5.6539998054504395 -8.654000282287598,7 -7,7 C-7,7 2,7 2,7 C3.6540000438690186,7 5,5.6539998054504395 5,4 C5,4 5,3.546999931335449 5,3.546999931335449 C5,3.546999931335449 8.645000457763672,4.934999942779541 8.645000457763672,4.934999942779541 C8.760000228881836,4.979000091552734 8.880000114440918,5 9,5 C9.199999809265137,5 9.39799976348877,4.940000057220459 9.567000389099121,4.822999954223633 C9.838000297546387,4.636000156402588 10,4.328999996185303 10,4 C10,4 10,-0.2160000056028366 10,-0.2160000056028366 C10,-0.2160000056028366 10,-4 10,-4 C10,-4.328999996185303 9.838000297546387,-4.636000156402588 9.567000389099121,-4.822999954223633z"/></g></g></g></g></svg>